<mxfile host="app.diagrams.net" modified="2023-11-06T14:07:37.358Z" agent="Mozilla/5.0 (Windows NT 10.0; Win64; x64; rv:109.0) Gecko/20100101 Firefox/116.0" etag="_WO1vl8bqyIfZ7_ADNew" version="22.0.8" type="github">
  <diagram id="C5RBs43oDa-KdzZeNtuy" name="Page-1">
    <mxGraphModel dx="880" dy="508" grid="1" gridSize="10" guides="1" tooltips="1" connect="1" arrows="1" fold="1" page="1" pageScale="1" pageWidth="827" pageHeight="1169" math="0" shadow="0">
      <root>
        <mxCell id="WIyWlLk6GJQsqaUBKTNV-0" />
        <mxCell id="WIyWlLk6GJQsqaUBKTNV-1" parent="WIyWlLk6GJQsqaUBKTNV-0" />
        <mxCell id="v_rYN15UNb8RKHrn1il--2" style="edgeStyle=orthogonalEdgeStyle;rounded=0;orthogonalLoop=1;jettySize=auto;html=1;" edge="1" parent="WIyWlLk6GJQsqaUBKTNV-1" source="v_rYN15UNb8RKHrn1il--0" target="v_rYN15UNb8RKHrn1il--1">
          <mxGeometry relative="1" as="geometry" />
        </mxCell>
        <mxCell id="v_rYN15UNb8RKHrn1il--0" value="&lt;div&gt;start&lt;/div&gt;&lt;div&gt;&lt;br&gt;&lt;/div&gt;" style="ellipse;whiteSpace=wrap;html=1;" vertex="1" parent="WIyWlLk6GJQsqaUBKTNV-1">
          <mxGeometry x="320" y="20" width="120" height="80" as="geometry" />
        </mxCell>
        <mxCell id="v_rYN15UNb8RKHrn1il--4" style="edgeStyle=orthogonalEdgeStyle;rounded=0;orthogonalLoop=1;jettySize=auto;html=1;entryX=0.5;entryY=0;entryDx=0;entryDy=0;" edge="1" parent="WIyWlLk6GJQsqaUBKTNV-1" source="v_rYN15UNb8RKHrn1il--1" target="v_rYN15UNb8RKHrn1il--3">
          <mxGeometry relative="1" as="geometry" />
        </mxCell>
        <mxCell id="v_rYN15UNb8RKHrn1il--1" value="a,b,result" style="shape=parallelogram;perimeter=parallelogramPerimeter;whiteSpace=wrap;html=1;fixedSize=1;" vertex="1" parent="WIyWlLk6GJQsqaUBKTNV-1">
          <mxGeometry x="320" y="170" width="120" height="60" as="geometry" />
        </mxCell>
        <mxCell id="v_rYN15UNb8RKHrn1il--9" style="edgeStyle=orthogonalEdgeStyle;rounded=0;orthogonalLoop=1;jettySize=auto;html=1;entryX=0.5;entryY=0;entryDx=0;entryDy=0;" edge="1" parent="WIyWlLk6GJQsqaUBKTNV-1" source="v_rYN15UNb8RKHrn1il--3" target="v_rYN15UNb8RKHrn1il--6">
          <mxGeometry relative="1" as="geometry" />
        </mxCell>
        <mxCell id="v_rYN15UNb8RKHrn1il--10" style="edgeStyle=orthogonalEdgeStyle;rounded=0;orthogonalLoop=1;jettySize=auto;html=1;entryX=0.5;entryY=0;entryDx=0;entryDy=0;" edge="1" parent="WIyWlLk6GJQsqaUBKTNV-1" source="v_rYN15UNb8RKHrn1il--3" target="v_rYN15UNb8RKHrn1il--7">
          <mxGeometry relative="1" as="geometry" />
        </mxCell>
        <mxCell id="v_rYN15UNb8RKHrn1il--11" style="edgeStyle=orthogonalEdgeStyle;rounded=0;orthogonalLoop=1;jettySize=auto;html=1;entryX=0.5;entryY=0;entryDx=0;entryDy=0;" edge="1" parent="WIyWlLk6GJQsqaUBKTNV-1" source="v_rYN15UNb8RKHrn1il--3" target="v_rYN15UNb8RKHrn1il--8">
          <mxGeometry relative="1" as="geometry" />
        </mxCell>
        <mxCell id="v_rYN15UNb8RKHrn1il--12" style="edgeStyle=orthogonalEdgeStyle;rounded=0;orthogonalLoop=1;jettySize=auto;html=1;" edge="1" parent="WIyWlLk6GJQsqaUBKTNV-1" source="v_rYN15UNb8RKHrn1il--3" target="v_rYN15UNb8RKHrn1il--5">
          <mxGeometry relative="1" as="geometry" />
        </mxCell>
        <mxCell id="v_rYN15UNb8RKHrn1il--3" value="math?" style="rhombus;whiteSpace=wrap;html=1;" vertex="1" parent="WIyWlLk6GJQsqaUBKTNV-1">
          <mxGeometry x="320" y="290" width="116" height="90" as="geometry" />
        </mxCell>
        <mxCell id="v_rYN15UNb8RKHrn1il--20" style="edgeStyle=orthogonalEdgeStyle;rounded=0;orthogonalLoop=1;jettySize=auto;html=1;entryX=0.5;entryY=0;entryDx=0;entryDy=0;" edge="1" parent="WIyWlLk6GJQsqaUBKTNV-1" source="v_rYN15UNb8RKHrn1il--5" target="v_rYN15UNb8RKHrn1il--13">
          <mxGeometry relative="1" as="geometry" />
        </mxCell>
        <mxCell id="v_rYN15UNb8RKHrn1il--5" value="+" style="rhombus;whiteSpace=wrap;html=1;" vertex="1" parent="WIyWlLk6GJQsqaUBKTNV-1">
          <mxGeometry x="40" y="400" width="80" height="80" as="geometry" />
        </mxCell>
        <mxCell id="v_rYN15UNb8RKHrn1il--18" style="edgeStyle=orthogonalEdgeStyle;rounded=0;orthogonalLoop=1;jettySize=auto;html=1;entryX=0.5;entryY=0;entryDx=0;entryDy=0;" edge="1" parent="WIyWlLk6GJQsqaUBKTNV-1" source="v_rYN15UNb8RKHrn1il--6" target="v_rYN15UNb8RKHrn1il--14">
          <mxGeometry relative="1" as="geometry" />
        </mxCell>
        <mxCell id="v_rYN15UNb8RKHrn1il--6" value="/" style="rhombus;whiteSpace=wrap;html=1;" vertex="1" parent="WIyWlLk6GJQsqaUBKTNV-1">
          <mxGeometry x="650" y="410" width="80" height="80" as="geometry" />
        </mxCell>
        <mxCell id="v_rYN15UNb8RKHrn1il--17" style="edgeStyle=orthogonalEdgeStyle;rounded=0;orthogonalLoop=1;jettySize=auto;html=1;entryX=0.5;entryY=0;entryDx=0;entryDy=0;" edge="1" parent="WIyWlLk6GJQsqaUBKTNV-1" source="v_rYN15UNb8RKHrn1il--7" target="v_rYN15UNb8RKHrn1il--15">
          <mxGeometry relative="1" as="geometry" />
        </mxCell>
        <mxCell id="v_rYN15UNb8RKHrn1il--7" value="*" style="rhombus;whiteSpace=wrap;html=1;" vertex="1" parent="WIyWlLk6GJQsqaUBKTNV-1">
          <mxGeometry x="480" y="400" width="80" height="80" as="geometry" />
        </mxCell>
        <mxCell id="v_rYN15UNb8RKHrn1il--8" value="-" style="rhombus;whiteSpace=wrap;html=1;" vertex="1" parent="WIyWlLk6GJQsqaUBKTNV-1">
          <mxGeometry x="210" y="400" width="80" height="80" as="geometry" />
        </mxCell>
        <mxCell id="v_rYN15UNb8RKHrn1il--28" style="edgeStyle=orthogonalEdgeStyle;rounded=0;orthogonalLoop=1;jettySize=auto;html=1;entryX=0;entryY=0.5;entryDx=0;entryDy=0;" edge="1" parent="WIyWlLk6GJQsqaUBKTNV-1" source="v_rYN15UNb8RKHrn1il--13" target="v_rYN15UNb8RKHrn1il--24">
          <mxGeometry relative="1" as="geometry">
            <Array as="points">
              <mxPoint x="80" y="840" />
            </Array>
          </mxGeometry>
        </mxCell>
        <mxCell id="v_rYN15UNb8RKHrn1il--13" value="result=a+b" style="shape=parallelogram;perimeter=parallelogramPerimeter;whiteSpace=wrap;html=1;fixedSize=1;" vertex="1" parent="WIyWlLk6GJQsqaUBKTNV-1">
          <mxGeometry x="20" y="570" width="120" height="60" as="geometry" />
        </mxCell>
        <mxCell id="v_rYN15UNb8RKHrn1il--29" style="edgeStyle=orthogonalEdgeStyle;rounded=0;orthogonalLoop=1;jettySize=auto;html=1;" edge="1" parent="WIyWlLk6GJQsqaUBKTNV-1" source="v_rYN15UNb8RKHrn1il--14" target="v_rYN15UNb8RKHrn1il--24">
          <mxGeometry relative="1" as="geometry">
            <Array as="points">
              <mxPoint x="640" y="840" />
            </Array>
          </mxGeometry>
        </mxCell>
        <mxCell id="v_rYN15UNb8RKHrn1il--14" value="result=a/b" style="shape=parallelogram;perimeter=parallelogramPerimeter;whiteSpace=wrap;html=1;fixedSize=1;" vertex="1" parent="WIyWlLk6GJQsqaUBKTNV-1">
          <mxGeometry x="640" y="580" width="120" height="60" as="geometry" />
        </mxCell>
        <mxCell id="v_rYN15UNb8RKHrn1il--25" style="edgeStyle=orthogonalEdgeStyle;rounded=0;orthogonalLoop=1;jettySize=auto;html=1;entryX=0.5;entryY=0;entryDx=0;entryDy=0;" edge="1" parent="WIyWlLk6GJQsqaUBKTNV-1" source="v_rYN15UNb8RKHrn1il--15" target="v_rYN15UNb8RKHrn1il--24">
          <mxGeometry relative="1" as="geometry" />
        </mxCell>
        <mxCell id="v_rYN15UNb8RKHrn1il--15" value="result=a*b" style="shape=parallelogram;perimeter=parallelogramPerimeter;whiteSpace=wrap;html=1;fixedSize=1;" vertex="1" parent="WIyWlLk6GJQsqaUBKTNV-1">
          <mxGeometry x="470" y="585" width="120" height="60" as="geometry" />
        </mxCell>
        <mxCell id="v_rYN15UNb8RKHrn1il--27" style="edgeStyle=orthogonalEdgeStyle;rounded=0;orthogonalLoop=1;jettySize=auto;html=1;" edge="1" parent="WIyWlLk6GJQsqaUBKTNV-1" source="v_rYN15UNb8RKHrn1il--16">
          <mxGeometry relative="1" as="geometry">
            <mxPoint x="410" y="810" as="targetPoint" />
            <Array as="points">
              <mxPoint x="250" y="690" />
              <mxPoint x="411" y="690" />
            </Array>
          </mxGeometry>
        </mxCell>
        <mxCell id="v_rYN15UNb8RKHrn1il--16" value="result=a-b" style="shape=parallelogram;perimeter=parallelogramPerimeter;whiteSpace=wrap;html=1;fixedSize=1;" vertex="1" parent="WIyWlLk6GJQsqaUBKTNV-1">
          <mxGeometry x="190" y="570" width="120" height="60" as="geometry" />
        </mxCell>
        <mxCell id="v_rYN15UNb8RKHrn1il--19" style="edgeStyle=orthogonalEdgeStyle;rounded=0;orthogonalLoop=1;jettySize=auto;html=1;entryX=0.558;entryY=-0.05;entryDx=0;entryDy=0;entryPerimeter=0;" edge="1" parent="WIyWlLk6GJQsqaUBKTNV-1" source="v_rYN15UNb8RKHrn1il--8" target="v_rYN15UNb8RKHrn1il--16">
          <mxGeometry relative="1" as="geometry" />
        </mxCell>
        <mxCell id="v_rYN15UNb8RKHrn1il--24" value="In kết quả và kết thúc" style="rounded=0;whiteSpace=wrap;html=1;" vertex="1" parent="WIyWlLk6GJQsqaUBKTNV-1">
          <mxGeometry x="350" y="810" width="130" height="90" as="geometry" />
        </mxCell>
      </root>
    </mxGraphModel>
  </diagram>
</mxfile>
